<mxfile host="app.diagrams.net" modified="2021-07-21T15:16:56.693Z" agent="5.0 (Windows NT 10.0; Win64; x64) AppleWebKit/537.36 (KHTML, like Gecko) Chrome/91.0.4472.164 Safari/537.36" etag="Ztet9UE3hLlyU1ZDHGIP" version="14.9.0" type="github">
  <diagram id="NqPz3V7me-MqtQ7d7VtO" name="Page-1">
    <mxGraphModel dx="1007" dy="547" grid="1" gridSize="10" guides="1" tooltips="1" connect="1" arrows="1" fold="1" page="1" pageScale="1" pageWidth="827" pageHeight="1169" math="0" shadow="0">
      <root>
        <mxCell id="0" />
        <mxCell id="1" parent="0" />
        <mxCell id="5VnEzYSrw6fhQEY2myun-6" value="UC: Generale" style="shape=umlFrame;whiteSpace=wrap;html=1;swimlaneFillColor=none;gradientColor=#ffffff;width=110;height=30;fillColor=#FFB570;strokeColor=#FFB570;" vertex="1" parent="1">
          <mxGeometry x="120" y="40" width="520" height="140" as="geometry" />
        </mxCell>
        <mxCell id="5VnEzYSrw6fhQEY2myun-1" value="Amministratore" style="shape=umlActor;html=1;verticalLabelPosition=bottom;verticalAlign=top;align=center;" vertex="1" parent="1">
          <mxGeometry x="150" y="80" width="30" height="60" as="geometry" />
        </mxCell>
        <mxCell id="5VnEzYSrw6fhQEY2myun-2" value="Login" style="ellipse;whiteSpace=wrap;html=1;" vertex="1" parent="1">
          <mxGeometry x="280" y="90" width="120" height="40" as="geometry" />
        </mxCell>
        <mxCell id="5VnEzYSrw6fhQEY2myun-3" value="Logout" style="ellipse;whiteSpace=wrap;html=1;" vertex="1" parent="1">
          <mxGeometry x="480" y="90" width="120" height="40" as="geometry" />
        </mxCell>
        <mxCell id="5VnEzYSrw6fhQEY2myun-4" value="" style="edgeStyle=none;html=1;endArrow=none;verticalAlign=bottom;" edge="1" parent="1">
          <mxGeometry width="160" relative="1" as="geometry">
            <mxPoint x="180" y="110" as="sourcePoint" />
            <mxPoint x="280" y="109.5" as="targetPoint" />
            <Array as="points" />
          </mxGeometry>
        </mxCell>
        <mxCell id="5VnEzYSrw6fhQEY2myun-5" value="&amp;lt;&amp;lt;include&amp;gt;&amp;gt;" style="edgeStyle=none;html=1;endArrow=open;verticalAlign=bottom;dashed=1;labelBackgroundColor=none;" edge="1" parent="1">
          <mxGeometry width="160" relative="1" as="geometry">
            <mxPoint x="400" y="109.5" as="sourcePoint" />
            <mxPoint x="480" y="109.5" as="targetPoint" />
            <Array as="points">
              <mxPoint x="440" y="109.5" />
            </Array>
          </mxGeometry>
        </mxCell>
        <mxCell id="5VnEzYSrw6fhQEY2myun-7" value="UC: Gestione Camere" style="shape=umlFrame;whiteSpace=wrap;html=1;swimlaneFillColor=none;gradientColor=#ffffff;width=130;height=30;fillColor=#FFB570;strokeColor=#FFB570;" vertex="1" parent="1">
          <mxGeometry x="120" y="200" width="520" height="280" as="geometry" />
        </mxCell>
        <mxCell id="5VnEzYSrw6fhQEY2myun-13" value="Amministratore" style="shape=umlActor;html=1;verticalLabelPosition=bottom;verticalAlign=top;align=center;" vertex="1" parent="1">
          <mxGeometry x="150" y="250" width="30" height="60" as="geometry" />
        </mxCell>
        <mxCell id="5VnEzYSrw6fhQEY2myun-14" value="Visualizza Prenotazione" style="ellipse;whiteSpace=wrap;html=1;" vertex="1" parent="1">
          <mxGeometry x="280" y="260" width="120" height="40" as="geometry" />
        </mxCell>
        <mxCell id="5VnEzYSrw6fhQEY2myun-15" value="Rimuovi Prenotazione" style="ellipse;whiteSpace=wrap;html=1;" vertex="1" parent="1">
          <mxGeometry x="480" y="260" width="120" height="40" as="geometry" />
        </mxCell>
        <mxCell id="5VnEzYSrw6fhQEY2myun-16" value="" style="edgeStyle=none;html=1;endArrow=none;verticalAlign=bottom;exitX=0.5;exitY=0.5;exitDx=0;exitDy=0;exitPerimeter=0;" edge="1" parent="1" source="5VnEzYSrw6fhQEY2myun-13">
          <mxGeometry width="160" relative="1" as="geometry">
            <mxPoint x="180" y="280" as="sourcePoint" />
            <mxPoint x="280" y="279.5" as="targetPoint" />
            <Array as="points" />
          </mxGeometry>
        </mxCell>
        <mxCell id="5VnEzYSrw6fhQEY2myun-17" value="&amp;lt;&amp;lt;include&amp;gt;&amp;gt;" style="edgeStyle=none;html=1;endArrow=open;verticalAlign=bottom;dashed=1;labelBackgroundColor=none;" edge="1" parent="1">
          <mxGeometry width="160" relative="1" as="geometry">
            <mxPoint x="400" y="279.5" as="sourcePoint" />
            <mxPoint x="480" y="279.5" as="targetPoint" />
            <Array as="points">
              <mxPoint x="440" y="279.5" />
            </Array>
          </mxGeometry>
        </mxCell>
        <mxCell id="5VnEzYSrw6fhQEY2myun-19" value="Visualizza Camera" style="ellipse;whiteSpace=wrap;html=1;" vertex="1" parent="1">
          <mxGeometry x="280" y="340" width="120" height="40" as="geometry" />
        </mxCell>
        <mxCell id="5VnEzYSrw6fhQEY2myun-20" value="Prenota Camera" style="ellipse;whiteSpace=wrap;html=1;" vertex="1" parent="1">
          <mxGeometry x="480" y="380" width="120" height="40" as="geometry" />
        </mxCell>
        <mxCell id="5VnEzYSrw6fhQEY2myun-21" value="" style="edgeStyle=none;html=1;endArrow=none;verticalAlign=bottom;" edge="1" parent="1">
          <mxGeometry width="160" relative="1" as="geometry">
            <mxPoint x="170" y="360" as="sourcePoint" />
            <mxPoint x="280" y="359.5" as="targetPoint" />
            <Array as="points" />
          </mxGeometry>
        </mxCell>
        <mxCell id="5VnEzYSrw6fhQEY2myun-22" value="&amp;lt;&amp;lt;include&amp;gt;&amp;gt;" style="edgeStyle=none;html=1;endArrow=open;verticalAlign=bottom;dashed=1;labelBackgroundColor=none;exitX=1;exitY=0.5;exitDx=0;exitDy=0;" edge="1" parent="1" source="5VnEzYSrw6fhQEY2myun-19">
          <mxGeometry y="16" width="160" relative="1" as="geometry">
            <mxPoint x="400" y="419.5" as="sourcePoint" />
            <mxPoint x="490" y="390" as="targetPoint" />
            <Array as="points" />
            <mxPoint as="offset" />
          </mxGeometry>
        </mxCell>
        <mxCell id="5VnEzYSrw6fhQEY2myun-25" value="" style="edgeStyle=none;html=1;endArrow=none;verticalAlign=bottom;exitX=0.713;exitY=0.87;exitDx=0;exitDy=0;exitPerimeter=0;" edge="1" parent="1" source="5VnEzYSrw6fhQEY2myun-13">
          <mxGeometry width="160" relative="1" as="geometry">
            <mxPoint x="580" y="480" as="sourcePoint" />
            <mxPoint x="171" y="440" as="targetPoint" />
          </mxGeometry>
        </mxCell>
        <mxCell id="5VnEzYSrw6fhQEY2myun-26" value="" style="edgeStyle=none;html=1;endArrow=none;verticalAlign=bottom;" edge="1" parent="1">
          <mxGeometry width="160" relative="1" as="geometry">
            <mxPoint x="170" y="440" as="sourcePoint" />
            <mxPoint x="280" y="440" as="targetPoint" />
          </mxGeometry>
        </mxCell>
        <mxCell id="5VnEzYSrw6fhQEY2myun-27" value="Cerca Camera" style="ellipse;whiteSpace=wrap;html=1;" vertex="1" parent="1">
          <mxGeometry x="280" y="420" width="120" height="40" as="geometry" />
        </mxCell>
        <mxCell id="5VnEzYSrw6fhQEY2myun-29" value="&amp;lt;&amp;lt;include&amp;gt;&amp;gt;" style="edgeStyle=none;html=1;endArrow=open;verticalAlign=bottom;dashed=1;labelBackgroundColor=none;" edge="1" parent="1">
          <mxGeometry x="0.1349" y="-29" width="160" relative="1" as="geometry">
            <mxPoint x="400" y="439.5" as="sourcePoint" />
            <mxPoint x="490" y="410" as="targetPoint" />
            <mxPoint as="offset" />
          </mxGeometry>
        </mxCell>
        <mxCell id="5VnEzYSrw6fhQEY2myun-30" value="UC: Gestione Bar" style="shape=umlFrame;whiteSpace=wrap;html=1;swimlaneFillColor=none;gradientColor=#ffffff;width=130;height=30;fillColor=#FFB570;strokeColor=#FFB570;" vertex="1" parent="1">
          <mxGeometry x="120" y="500" width="520" height="280" as="geometry" />
        </mxCell>
        <mxCell id="5VnEzYSrw6fhQEY2myun-31" value="Amministratore" style="shape=umlActor;html=1;verticalLabelPosition=bottom;verticalAlign=top;align=center;" vertex="1" parent="1">
          <mxGeometry x="150" y="550" width="30" height="60" as="geometry" />
        </mxCell>
        <mxCell id="5VnEzYSrw6fhQEY2myun-32" value="Visualizza Listino Prezzi" style="ellipse;whiteSpace=wrap;html=1;" vertex="1" parent="1">
          <mxGeometry x="280" y="560" width="120" height="40" as="geometry" />
        </mxCell>
        <mxCell id="5VnEzYSrw6fhQEY2myun-33" value="Aggiungi Voce Listino" style="ellipse;whiteSpace=wrap;html=1;" vertex="1" parent="1">
          <mxGeometry x="480" y="520" width="120" height="40" as="geometry" />
        </mxCell>
        <mxCell id="5VnEzYSrw6fhQEY2myun-34" value="" style="edgeStyle=none;html=1;endArrow=none;verticalAlign=bottom;exitX=0.5;exitY=0.5;exitDx=0;exitDy=0;exitPerimeter=0;" edge="1" source="5VnEzYSrw6fhQEY2myun-31" parent="1">
          <mxGeometry width="160" relative="1" as="geometry">
            <mxPoint x="180" y="580" as="sourcePoint" />
            <mxPoint x="280" y="579.5" as="targetPoint" />
            <Array as="points" />
          </mxGeometry>
        </mxCell>
        <mxCell id="5VnEzYSrw6fhQEY2myun-35" value="&amp;lt;&amp;lt;include&amp;gt;&amp;gt;" style="edgeStyle=none;html=1;endArrow=open;verticalAlign=bottom;dashed=1;labelBackgroundColor=none;exitX=1;exitY=0.5;exitDx=0;exitDy=0;" edge="1" parent="1" source="5VnEzYSrw6fhQEY2myun-32">
          <mxGeometry x="-0.2998" y="18" width="160" relative="1" as="geometry">
            <mxPoint x="400" y="539.5" as="sourcePoint" />
            <mxPoint x="480" y="539.5" as="targetPoint" />
            <Array as="points" />
            <mxPoint as="offset" />
          </mxGeometry>
        </mxCell>
        <mxCell id="5VnEzYSrw6fhQEY2myun-36" value="Rimuovi Consumazione" style="ellipse;whiteSpace=wrap;html=1;" vertex="1" parent="1">
          <mxGeometry x="280" y="640" width="120" height="40" as="geometry" />
        </mxCell>
        <mxCell id="5VnEzYSrw6fhQEY2myun-37" value="Stampa Conto Consumazioni" style="ellipse;whiteSpace=wrap;html=1;" vertex="1" parent="1">
          <mxGeometry x="480" y="680" width="120" height="40" as="geometry" />
        </mxCell>
        <mxCell id="5VnEzYSrw6fhQEY2myun-38" value="" style="edgeStyle=none;html=1;endArrow=none;verticalAlign=bottom;" edge="1" parent="1">
          <mxGeometry width="160" relative="1" as="geometry">
            <mxPoint x="170" y="660" as="sourcePoint" />
            <mxPoint x="280" y="659.5" as="targetPoint" />
            <Array as="points" />
          </mxGeometry>
        </mxCell>
        <mxCell id="5VnEzYSrw6fhQEY2myun-39" value="&amp;lt;&amp;lt;include&amp;gt;&amp;gt;" style="edgeStyle=none;html=1;endArrow=open;verticalAlign=bottom;dashed=1;labelBackgroundColor=none;exitX=1;exitY=0.5;exitDx=0;exitDy=0;" edge="1" source="5VnEzYSrw6fhQEY2myun-36" parent="1">
          <mxGeometry y="16" width="160" relative="1" as="geometry">
            <mxPoint x="400" y="719.5" as="sourcePoint" />
            <mxPoint x="490" y="690" as="targetPoint" />
            <Array as="points" />
            <mxPoint as="offset" />
          </mxGeometry>
        </mxCell>
        <mxCell id="5VnEzYSrw6fhQEY2myun-40" value="" style="edgeStyle=none;html=1;endArrow=none;verticalAlign=bottom;exitX=0.713;exitY=0.87;exitDx=0;exitDy=0;exitPerimeter=0;" edge="1" source="5VnEzYSrw6fhQEY2myun-31" parent="1">
          <mxGeometry width="160" relative="1" as="geometry">
            <mxPoint x="580" y="780" as="sourcePoint" />
            <mxPoint x="171" y="740" as="targetPoint" />
          </mxGeometry>
        </mxCell>
        <mxCell id="5VnEzYSrw6fhQEY2myun-41" value="" style="edgeStyle=none;html=1;endArrow=none;verticalAlign=bottom;" edge="1" parent="1">
          <mxGeometry width="160" relative="1" as="geometry">
            <mxPoint x="170" y="740" as="sourcePoint" />
            <mxPoint x="280" y="740" as="targetPoint" />
          </mxGeometry>
        </mxCell>
        <mxCell id="5VnEzYSrw6fhQEY2myun-42" value="Aggiungi Consumazione" style="ellipse;whiteSpace=wrap;html=1;" vertex="1" parent="1">
          <mxGeometry x="280" y="720" width="120" height="40" as="geometry" />
        </mxCell>
        <mxCell id="5VnEzYSrw6fhQEY2myun-43" value="&amp;lt;&amp;lt;include&amp;gt;&amp;gt;" style="edgeStyle=none;html=1;endArrow=open;verticalAlign=bottom;dashed=1;labelBackgroundColor=none;" edge="1" parent="1">
          <mxGeometry x="0.1349" y="-29" width="160" relative="1" as="geometry">
            <mxPoint x="400" y="739.5" as="sourcePoint" />
            <mxPoint x="490" y="710" as="targetPoint" />
            <mxPoint as="offset" />
          </mxGeometry>
        </mxCell>
        <mxCell id="5VnEzYSrw6fhQEY2myun-44" value="Rimuovi Voce Listino" style="ellipse;whiteSpace=wrap;html=1;" vertex="1" parent="1">
          <mxGeometry x="480" y="600" width="120" height="40" as="geometry" />
        </mxCell>
        <mxCell id="5VnEzYSrw6fhQEY2myun-45" value="&amp;lt;&amp;lt;include&amp;gt;&amp;gt;" style="edgeStyle=none;html=1;endArrow=open;verticalAlign=bottom;dashed=1;labelBackgroundColor=none;exitX=1;exitY=1;exitDx=0;exitDy=0;" edge="1" parent="1" source="5VnEzYSrw6fhQEY2myun-32">
          <mxGeometry x="-0.0996" y="-25" width="160" relative="1" as="geometry">
            <mxPoint x="400" y="660" as="sourcePoint" />
            <mxPoint x="480" y="619.5" as="targetPoint" />
            <Array as="points" />
            <mxPoint as="offset" />
          </mxGeometry>
        </mxCell>
        <mxCell id="5VnEzYSrw6fhQEY2myun-46" value="UC: Gestione Bar" style="shape=umlFrame;whiteSpace=wrap;html=1;swimlaneFillColor=none;gradientColor=#ffffff;width=130;height=30;fillColor=#FFB570;strokeColor=#FFB570;" vertex="1" parent="1">
          <mxGeometry x="120" y="800" width="520" height="440" as="geometry" />
        </mxCell>
        <mxCell id="5VnEzYSrw6fhQEY2myun-47" value="Amministratore" style="shape=umlActor;html=1;verticalLabelPosition=bottom;verticalAlign=top;align=center;" vertex="1" parent="1">
          <mxGeometry x="150" y="850" width="30" height="60" as="geometry" />
        </mxCell>
        <mxCell id="5VnEzYSrw6fhQEY2myun-48" value="Visualizza Prenotazione" style="ellipse;whiteSpace=wrap;html=1;" vertex="1" parent="1">
          <mxGeometry x="280" y="860" width="120" height="40" as="geometry" />
        </mxCell>
        <mxCell id="5VnEzYSrw6fhQEY2myun-49" value="Rimuovi Prenotazione" style="ellipse;whiteSpace=wrap;html=1;" vertex="1" parent="1">
          <mxGeometry x="480" y="860" width="120" height="40" as="geometry" />
        </mxCell>
        <mxCell id="5VnEzYSrw6fhQEY2myun-50" value="" style="edgeStyle=none;html=1;endArrow=none;verticalAlign=bottom;exitX=0.5;exitY=0.5;exitDx=0;exitDy=0;exitPerimeter=0;" edge="1" source="5VnEzYSrw6fhQEY2myun-47" parent="1">
          <mxGeometry width="160" relative="1" as="geometry">
            <mxPoint x="180" y="880" as="sourcePoint" />
            <mxPoint x="280" y="879.5" as="targetPoint" />
            <Array as="points" />
          </mxGeometry>
        </mxCell>
        <mxCell id="5VnEzYSrw6fhQEY2myun-51" value="&amp;lt;&amp;lt;include&amp;gt;&amp;gt;" style="edgeStyle=none;html=1;endArrow=open;verticalAlign=bottom;dashed=1;labelBackgroundColor=none;exitX=1;exitY=0.5;exitDx=0;exitDy=0;" edge="1" source="5VnEzYSrw6fhQEY2myun-48" parent="1" target="5VnEzYSrw6fhQEY2myun-49">
          <mxGeometry x="-0.2998" y="18" width="160" relative="1" as="geometry">
            <mxPoint x="400" y="839.5" as="sourcePoint" />
            <mxPoint x="480" y="839.5" as="targetPoint" />
            <Array as="points" />
            <mxPoint as="offset" />
          </mxGeometry>
        </mxCell>
        <mxCell id="5VnEzYSrw6fhQEY2myun-52" value="Visualizza Lista Tavoli" style="ellipse;whiteSpace=wrap;html=1;" vertex="1" parent="1">
          <mxGeometry x="280" y="940" width="120" height="40" as="geometry" />
        </mxCell>
        <mxCell id="5VnEzYSrw6fhQEY2myun-53" value="Prenota Tavolo" style="ellipse;whiteSpace=wrap;html=1;" vertex="1" parent="1">
          <mxGeometry x="480" y="980" width="120" height="40" as="geometry" />
        </mxCell>
        <mxCell id="5VnEzYSrw6fhQEY2myun-54" value="" style="edgeStyle=none;html=1;endArrow=none;verticalAlign=bottom;" edge="1" parent="1">
          <mxGeometry width="160" relative="1" as="geometry">
            <mxPoint x="170" y="960" as="sourcePoint" />
            <mxPoint x="280" y="959.5" as="targetPoint" />
            <Array as="points" />
          </mxGeometry>
        </mxCell>
        <mxCell id="5VnEzYSrw6fhQEY2myun-55" value="&amp;lt;&amp;lt;include&amp;gt;&amp;gt;" style="edgeStyle=none;html=1;endArrow=open;verticalAlign=bottom;dashed=1;labelBackgroundColor=none;exitX=1;exitY=0.5;exitDx=0;exitDy=0;" edge="1" source="5VnEzYSrw6fhQEY2myun-52" parent="1">
          <mxGeometry y="16" width="160" relative="1" as="geometry">
            <mxPoint x="400" y="1019.5" as="sourcePoint" />
            <mxPoint x="490" y="990" as="targetPoint" />
            <Array as="points" />
            <mxPoint as="offset" />
          </mxGeometry>
        </mxCell>
        <mxCell id="5VnEzYSrw6fhQEY2myun-56" value="" style="edgeStyle=none;html=1;endArrow=none;verticalAlign=bottom;exitX=0.713;exitY=0.87;exitDx=0;exitDy=0;exitPerimeter=0;" edge="1" source="5VnEzYSrw6fhQEY2myun-47" parent="1">
          <mxGeometry width="160" relative="1" as="geometry">
            <mxPoint x="580" y="1080" as="sourcePoint" />
            <mxPoint x="171" y="1190" as="targetPoint" />
          </mxGeometry>
        </mxCell>
        <mxCell id="5VnEzYSrw6fhQEY2myun-57" value="" style="edgeStyle=none;html=1;endArrow=none;verticalAlign=bottom;" edge="1" parent="1">
          <mxGeometry width="160" relative="1" as="geometry">
            <mxPoint x="170" y="1040" as="sourcePoint" />
            <mxPoint x="280" y="1040" as="targetPoint" />
          </mxGeometry>
        </mxCell>
        <mxCell id="5VnEzYSrw6fhQEY2myun-58" value="Cerca Tavolo" style="ellipse;whiteSpace=wrap;html=1;" vertex="1" parent="1">
          <mxGeometry x="280" y="1020" width="120" height="40" as="geometry" />
        </mxCell>
        <mxCell id="5VnEzYSrw6fhQEY2myun-59" value="&amp;lt;&amp;lt;include&amp;gt;&amp;gt;" style="edgeStyle=none;html=1;endArrow=open;verticalAlign=bottom;dashed=1;labelBackgroundColor=none;" edge="1" parent="1">
          <mxGeometry x="0.1349" y="-29" width="160" relative="1" as="geometry">
            <mxPoint x="400" y="1039.5" as="sourcePoint" />
            <mxPoint x="490" y="1010" as="targetPoint" />
            <mxPoint as="offset" />
          </mxGeometry>
        </mxCell>
        <mxCell id="5VnEzYSrw6fhQEY2myun-67" value="Aggiungi Ordine" style="ellipse;whiteSpace=wrap;html=1;" vertex="1" parent="1">
          <mxGeometry x="280" y="1090" width="120" height="40" as="geometry" />
        </mxCell>
        <mxCell id="5VnEzYSrw6fhQEY2myun-68" value="Stampa Conto Ordini" style="ellipse;whiteSpace=wrap;html=1;" vertex="1" parent="1">
          <mxGeometry x="480" y="1130" width="120" height="40" as="geometry" />
        </mxCell>
        <mxCell id="5VnEzYSrw6fhQEY2myun-69" value="" style="edgeStyle=none;html=1;endArrow=none;verticalAlign=bottom;" edge="1" parent="1">
          <mxGeometry width="160" relative="1" as="geometry">
            <mxPoint x="170" y="1110" as="sourcePoint" />
            <mxPoint x="280" y="1109.5" as="targetPoint" />
            <Array as="points" />
          </mxGeometry>
        </mxCell>
        <mxCell id="5VnEzYSrw6fhQEY2myun-70" value="&amp;lt;&amp;lt;include&amp;gt;&amp;gt;" style="edgeStyle=none;html=1;endArrow=open;verticalAlign=bottom;dashed=1;labelBackgroundColor=none;exitX=1;exitY=0.5;exitDx=0;exitDy=0;" edge="1" source="5VnEzYSrw6fhQEY2myun-67" parent="1">
          <mxGeometry y="16" width="160" relative="1" as="geometry">
            <mxPoint x="400" y="1169.5" as="sourcePoint" />
            <mxPoint x="490" y="1140" as="targetPoint" />
            <Array as="points" />
            <mxPoint as="offset" />
          </mxGeometry>
        </mxCell>
        <mxCell id="5VnEzYSrw6fhQEY2myun-71" value="" style="edgeStyle=none;html=1;endArrow=none;verticalAlign=bottom;" edge="1" parent="1">
          <mxGeometry width="160" relative="1" as="geometry">
            <mxPoint x="170" y="1190" as="sourcePoint" />
            <mxPoint x="280" y="1190" as="targetPoint" />
          </mxGeometry>
        </mxCell>
        <mxCell id="5VnEzYSrw6fhQEY2myun-72" value="Rimuovi Ordine" style="ellipse;whiteSpace=wrap;html=1;" vertex="1" parent="1">
          <mxGeometry x="280" y="1170" width="120" height="40" as="geometry" />
        </mxCell>
        <mxCell id="5VnEzYSrw6fhQEY2myun-73" value="&amp;lt;&amp;lt;include&amp;gt;&amp;gt;" style="edgeStyle=none;html=1;endArrow=open;verticalAlign=bottom;dashed=1;labelBackgroundColor=none;" edge="1" parent="1">
          <mxGeometry x="0.1349" y="-29" width="160" relative="1" as="geometry">
            <mxPoint x="400" y="1189.5" as="sourcePoint" />
            <mxPoint x="490" y="1160" as="targetPoint" />
            <mxPoint as="offset" />
          </mxGeometry>
        </mxCell>
        <mxCell id="5VnEzYSrw6fhQEY2myun-74" value="UC: Gestione Dipendenti" style="shape=umlFrame;whiteSpace=wrap;html=1;swimlaneFillColor=none;gradientColor=#ffffff;width=140;height=30;fillColor=#FFB570;strokeColor=#FFB570;" vertex="1" parent="1">
          <mxGeometry x="120" y="1260" width="520" height="340" as="geometry" />
        </mxCell>
        <mxCell id="5VnEzYSrw6fhQEY2myun-75" value="Amministratore" style="shape=umlActor;html=1;verticalLabelPosition=bottom;verticalAlign=top;align=center;" vertex="1" parent="1">
          <mxGeometry x="150" y="1310" width="30" height="60" as="geometry" />
        </mxCell>
        <mxCell id="5VnEzYSrw6fhQEY2myun-76" value="Visualizza Dipendenti" style="ellipse;whiteSpace=wrap;html=1;" vertex="1" parent="1">
          <mxGeometry x="280" y="1320" width="120" height="40" as="geometry" />
        </mxCell>
        <mxCell id="5VnEzYSrw6fhQEY2myun-77" value="Rimuovi Dipendenti" style="ellipse;whiteSpace=wrap;html=1;" vertex="1" parent="1">
          <mxGeometry x="480" y="1320" width="120" height="40" as="geometry" />
        </mxCell>
        <mxCell id="5VnEzYSrw6fhQEY2myun-78" value="" style="edgeStyle=none;html=1;endArrow=none;verticalAlign=bottom;exitX=0.5;exitY=0.5;exitDx=0;exitDy=0;exitPerimeter=0;" edge="1" parent="1" source="5VnEzYSrw6fhQEY2myun-75">
          <mxGeometry width="160" relative="1" as="geometry">
            <mxPoint x="180" y="1340" as="sourcePoint" />
            <mxPoint x="280" y="1339.5" as="targetPoint" />
            <Array as="points" />
          </mxGeometry>
        </mxCell>
        <mxCell id="5VnEzYSrw6fhQEY2myun-79" value="&amp;lt;&amp;lt;include&amp;gt;&amp;gt;" style="edgeStyle=none;html=1;endArrow=open;verticalAlign=bottom;dashed=1;labelBackgroundColor=none;exitX=1;exitY=0.5;exitDx=0;exitDy=0;" edge="1" parent="1" source="5VnEzYSrw6fhQEY2myun-76" target="5VnEzYSrw6fhQEY2myun-77">
          <mxGeometry x="-0.2998" y="18" width="160" relative="1" as="geometry">
            <mxPoint x="400" y="1299.5" as="sourcePoint" />
            <mxPoint x="480" y="1299.5" as="targetPoint" />
            <Array as="points" />
            <mxPoint as="offset" />
          </mxGeometry>
        </mxCell>
        <mxCell id="5VnEzYSrw6fhQEY2myun-80" value="Ricerca Dipendenti" style="ellipse;whiteSpace=wrap;html=1;" vertex="1" parent="1">
          <mxGeometry x="280" y="1400" width="120" height="40" as="geometry" />
        </mxCell>
        <mxCell id="5VnEzYSrw6fhQEY2myun-81" value="Modifica Dipendenti" style="ellipse;whiteSpace=wrap;html=1;" vertex="1" parent="1">
          <mxGeometry x="480" y="1400" width="120" height="40" as="geometry" />
        </mxCell>
        <mxCell id="5VnEzYSrw6fhQEY2myun-82" value="" style="edgeStyle=none;html=1;endArrow=none;verticalAlign=bottom;" edge="1" parent="1">
          <mxGeometry width="160" relative="1" as="geometry">
            <mxPoint x="170" y="1420" as="sourcePoint" />
            <mxPoint x="280" y="1419.5" as="targetPoint" />
            <Array as="points" />
          </mxGeometry>
        </mxCell>
        <mxCell id="5VnEzYSrw6fhQEY2myun-83" value="&amp;lt;&amp;lt;include&amp;gt;&amp;gt;" style="edgeStyle=none;html=1;endArrow=open;verticalAlign=bottom;dashed=1;labelBackgroundColor=none;exitX=1;exitY=0.5;exitDx=0;exitDy=0;" edge="1" parent="1" source="5VnEzYSrw6fhQEY2myun-80" target="5VnEzYSrw6fhQEY2myun-81">
          <mxGeometry y="-20" width="160" relative="1" as="geometry">
            <mxPoint x="400" y="1479.5" as="sourcePoint" />
            <mxPoint x="490" y="1450" as="targetPoint" />
            <Array as="points" />
            <mxPoint as="offset" />
          </mxGeometry>
        </mxCell>
        <mxCell id="5VnEzYSrw6fhQEY2myun-84" value="" style="edgeStyle=none;html=1;endArrow=none;verticalAlign=bottom;exitX=0.713;exitY=0.87;exitDx=0;exitDy=0;exitPerimeter=0;" edge="1" parent="1" source="5VnEzYSrw6fhQEY2myun-75">
          <mxGeometry width="160" relative="1" as="geometry">
            <mxPoint x="580" y="1540" as="sourcePoint" />
            <mxPoint x="171" y="1570" as="targetPoint" />
          </mxGeometry>
        </mxCell>
        <mxCell id="5VnEzYSrw6fhQEY2myun-85" value="" style="edgeStyle=none;html=1;endArrow=none;verticalAlign=bottom;" edge="1" parent="1">
          <mxGeometry width="160" relative="1" as="geometry">
            <mxPoint x="170" y="1500" as="sourcePoint" />
            <mxPoint x="280" y="1500" as="targetPoint" />
          </mxGeometry>
        </mxCell>
        <mxCell id="5VnEzYSrw6fhQEY2myun-86" value="Aggiungi Dipendenti" style="ellipse;whiteSpace=wrap;html=1;" vertex="1" parent="1">
          <mxGeometry x="280" y="1480" width="120" height="40" as="geometry" />
        </mxCell>
        <mxCell id="5VnEzYSrw6fhQEY2myun-88" value="Crea PDF Lista Dipendenti" style="ellipse;whiteSpace=wrap;html=1;" vertex="1" parent="1">
          <mxGeometry x="280" y="1550" width="120" height="40" as="geometry" />
        </mxCell>
        <mxCell id="5VnEzYSrw6fhQEY2myun-90" value="" style="edgeStyle=none;html=1;endArrow=none;verticalAlign=bottom;" edge="1" parent="1">
          <mxGeometry width="160" relative="1" as="geometry">
            <mxPoint x="170" y="1570" as="sourcePoint" />
            <mxPoint x="280" y="1569.5" as="targetPoint" />
            <Array as="points" />
          </mxGeometry>
        </mxCell>
        <mxCell id="5VnEzYSrw6fhQEY2myun-95" value="&amp;lt;&amp;lt;include&amp;gt;&amp;gt;" style="edgeStyle=none;html=1;endArrow=open;verticalAlign=bottom;dashed=1;labelBackgroundColor=none;" edge="1" parent="1" source="5VnEzYSrw6fhQEY2myun-80" target="5VnEzYSrw6fhQEY2myun-77">
          <mxGeometry x="-0.1394" y="-23" width="160" relative="1" as="geometry">
            <mxPoint x="340" y="1380" as="sourcePoint" />
            <mxPoint x="500" y="1380" as="targetPoint" />
            <mxPoint as="offset" />
          </mxGeometry>
        </mxCell>
        <mxCell id="5VnEzYSrw6fhQEY2myun-96" value="&amp;lt;&amp;lt;include&amp;gt;&amp;gt;" style="edgeStyle=none;html=1;endArrow=open;verticalAlign=bottom;dashed=1;labelBackgroundColor=none;entryX=0;entryY=0;entryDx=0;entryDy=0;" edge="1" parent="1" source="5VnEzYSrw6fhQEY2myun-76" target="5VnEzYSrw6fhQEY2myun-81">
          <mxGeometry x="-0.0297" y="11" width="160" relative="1" as="geometry">
            <mxPoint x="334" y="1370" as="sourcePoint" />
            <mxPoint x="494" y="1370" as="targetPoint" />
            <mxPoint as="offset" />
          </mxGeometry>
        </mxCell>
        <mxCell id="5VnEzYSrw6fhQEY2myun-97" value="UC: Gestione Fornitori" style="shape=umlFrame;whiteSpace=wrap;html=1;swimlaneFillColor=none;gradientColor=#ffffff;width=140;height=30;fillColor=#FFB570;strokeColor=#FFB570;" vertex="1" parent="1">
          <mxGeometry x="120" y="1640" width="520" height="340" as="geometry" />
        </mxCell>
        <mxCell id="5VnEzYSrw6fhQEY2myun-98" value="Amministratore" style="shape=umlActor;html=1;verticalLabelPosition=bottom;verticalAlign=top;align=center;" vertex="1" parent="1">
          <mxGeometry x="150" y="1690" width="30" height="60" as="geometry" />
        </mxCell>
        <mxCell id="5VnEzYSrw6fhQEY2myun-99" value="Visualizza Fornitori" style="ellipse;whiteSpace=wrap;html=1;" vertex="1" parent="1">
          <mxGeometry x="280" y="1700" width="120" height="40" as="geometry" />
        </mxCell>
        <mxCell id="5VnEzYSrw6fhQEY2myun-100" value="Rimuovi Fornitori" style="ellipse;whiteSpace=wrap;html=1;" vertex="1" parent="1">
          <mxGeometry x="480" y="1700" width="120" height="40" as="geometry" />
        </mxCell>
        <mxCell id="5VnEzYSrw6fhQEY2myun-101" value="" style="edgeStyle=none;html=1;endArrow=none;verticalAlign=bottom;exitX=0.5;exitY=0.5;exitDx=0;exitDy=0;exitPerimeter=0;" edge="1" parent="1" source="5VnEzYSrw6fhQEY2myun-98">
          <mxGeometry width="160" relative="1" as="geometry">
            <mxPoint x="180" y="1720" as="sourcePoint" />
            <mxPoint x="280" y="1719.5" as="targetPoint" />
            <Array as="points" />
          </mxGeometry>
        </mxCell>
        <mxCell id="5VnEzYSrw6fhQEY2myun-102" value="&amp;lt;&amp;lt;include&amp;gt;&amp;gt;" style="edgeStyle=none;html=1;endArrow=open;verticalAlign=bottom;dashed=1;labelBackgroundColor=none;exitX=1;exitY=0.5;exitDx=0;exitDy=0;" edge="1" parent="1" source="5VnEzYSrw6fhQEY2myun-99" target="5VnEzYSrw6fhQEY2myun-100">
          <mxGeometry x="-0.2998" y="18" width="160" relative="1" as="geometry">
            <mxPoint x="400" y="1679.5" as="sourcePoint" />
            <mxPoint x="480" y="1679.5" as="targetPoint" />
            <Array as="points" />
            <mxPoint as="offset" />
          </mxGeometry>
        </mxCell>
        <mxCell id="5VnEzYSrw6fhQEY2myun-103" value="Ricerca Fornitori" style="ellipse;whiteSpace=wrap;html=1;" vertex="1" parent="1">
          <mxGeometry x="280" y="1780" width="120" height="40" as="geometry" />
        </mxCell>
        <mxCell id="5VnEzYSrw6fhQEY2myun-104" value="Modifica Fornitori" style="ellipse;whiteSpace=wrap;html=1;" vertex="1" parent="1">
          <mxGeometry x="480" y="1780" width="120" height="40" as="geometry" />
        </mxCell>
        <mxCell id="5VnEzYSrw6fhQEY2myun-105" value="" style="edgeStyle=none;html=1;endArrow=none;verticalAlign=bottom;" edge="1" parent="1">
          <mxGeometry width="160" relative="1" as="geometry">
            <mxPoint x="170" y="1800" as="sourcePoint" />
            <mxPoint x="280" y="1799.5" as="targetPoint" />
            <Array as="points" />
          </mxGeometry>
        </mxCell>
        <mxCell id="5VnEzYSrw6fhQEY2myun-106" value="&amp;lt;&amp;lt;include&amp;gt;&amp;gt;" style="edgeStyle=none;html=1;endArrow=open;verticalAlign=bottom;dashed=1;labelBackgroundColor=none;exitX=1;exitY=0.5;exitDx=0;exitDy=0;" edge="1" parent="1" source="5VnEzYSrw6fhQEY2myun-103" target="5VnEzYSrw6fhQEY2myun-104">
          <mxGeometry y="-20" width="160" relative="1" as="geometry">
            <mxPoint x="400" y="1859.5" as="sourcePoint" />
            <mxPoint x="490" y="1830" as="targetPoint" />
            <Array as="points" />
            <mxPoint as="offset" />
          </mxGeometry>
        </mxCell>
        <mxCell id="5VnEzYSrw6fhQEY2myun-107" value="" style="edgeStyle=none;html=1;endArrow=none;verticalAlign=bottom;exitX=0.713;exitY=0.87;exitDx=0;exitDy=0;exitPerimeter=0;" edge="1" parent="1" source="5VnEzYSrw6fhQEY2myun-98">
          <mxGeometry width="160" relative="1" as="geometry">
            <mxPoint x="580" y="1920" as="sourcePoint" />
            <mxPoint x="171" y="1950" as="targetPoint" />
          </mxGeometry>
        </mxCell>
        <mxCell id="5VnEzYSrw6fhQEY2myun-108" value="" style="edgeStyle=none;html=1;endArrow=none;verticalAlign=bottom;" edge="1" parent="1">
          <mxGeometry width="160" relative="1" as="geometry">
            <mxPoint x="170" y="1880" as="sourcePoint" />
            <mxPoint x="280" y="1880" as="targetPoint" />
          </mxGeometry>
        </mxCell>
        <mxCell id="5VnEzYSrw6fhQEY2myun-109" value="Aggiungi Fornitori" style="ellipse;whiteSpace=wrap;html=1;" vertex="1" parent="1">
          <mxGeometry x="280" y="1860" width="120" height="40" as="geometry" />
        </mxCell>
        <mxCell id="5VnEzYSrw6fhQEY2myun-110" value="Crea PDF Lista Fornitori" style="ellipse;whiteSpace=wrap;html=1;" vertex="1" parent="1">
          <mxGeometry x="280" y="1930" width="120" height="40" as="geometry" />
        </mxCell>
        <mxCell id="5VnEzYSrw6fhQEY2myun-111" value="" style="edgeStyle=none;html=1;endArrow=none;verticalAlign=bottom;" edge="1" parent="1">
          <mxGeometry width="160" relative="1" as="geometry">
            <mxPoint x="170" y="1950" as="sourcePoint" />
            <mxPoint x="280" y="1949.5" as="targetPoint" />
            <Array as="points" />
          </mxGeometry>
        </mxCell>
        <mxCell id="5VnEzYSrw6fhQEY2myun-112" value="&amp;lt;&amp;lt;include&amp;gt;&amp;gt;" style="edgeStyle=none;html=1;endArrow=open;verticalAlign=bottom;dashed=1;labelBackgroundColor=none;" edge="1" parent="1" source="5VnEzYSrw6fhQEY2myun-103" target="5VnEzYSrw6fhQEY2myun-100">
          <mxGeometry x="-0.1394" y="-23" width="160" relative="1" as="geometry">
            <mxPoint x="340" y="1760" as="sourcePoint" />
            <mxPoint x="500" y="1760" as="targetPoint" />
            <mxPoint as="offset" />
          </mxGeometry>
        </mxCell>
        <mxCell id="5VnEzYSrw6fhQEY2myun-113" value="&amp;lt;&amp;lt;include&amp;gt;&amp;gt;" style="edgeStyle=none;html=1;endArrow=open;verticalAlign=bottom;dashed=1;labelBackgroundColor=none;entryX=0;entryY=0;entryDx=0;entryDy=0;" edge="1" parent="1" source="5VnEzYSrw6fhQEY2myun-99" target="5VnEzYSrw6fhQEY2myun-104">
          <mxGeometry x="-0.0297" y="11" width="160" relative="1" as="geometry">
            <mxPoint x="334" y="1750" as="sourcePoint" />
            <mxPoint x="494" y="1750" as="targetPoint" />
            <mxPoint as="offset" />
          </mxGeometry>
        </mxCell>
        <mxCell id="5VnEzYSrw6fhQEY2myun-115" value="UC: Gestione Clienti" style="shape=umlFrame;whiteSpace=wrap;html=1;swimlaneFillColor=none;gradientColor=#ffffff;width=140;height=30;fillColor=#FFB570;strokeColor=#FFB570;" vertex="1" parent="1">
          <mxGeometry x="120" y="2020" width="520" height="340" as="geometry" />
        </mxCell>
        <mxCell id="5VnEzYSrw6fhQEY2myun-116" value="Amministratore" style="shape=umlActor;html=1;verticalLabelPosition=bottom;verticalAlign=top;align=center;" vertex="1" parent="1">
          <mxGeometry x="150" y="2070" width="30" height="60" as="geometry" />
        </mxCell>
        <mxCell id="5VnEzYSrw6fhQEY2myun-117" value="Visualizza Clienti" style="ellipse;whiteSpace=wrap;html=1;" vertex="1" parent="1">
          <mxGeometry x="280" y="2080" width="120" height="40" as="geometry" />
        </mxCell>
        <mxCell id="5VnEzYSrw6fhQEY2myun-118" value="Rimuovi Clienti" style="ellipse;whiteSpace=wrap;html=1;" vertex="1" parent="1">
          <mxGeometry x="480" y="2080" width="120" height="40" as="geometry" />
        </mxCell>
        <mxCell id="5VnEzYSrw6fhQEY2myun-119" value="" style="edgeStyle=none;html=1;endArrow=none;verticalAlign=bottom;exitX=0.5;exitY=0.5;exitDx=0;exitDy=0;exitPerimeter=0;" edge="1" source="5VnEzYSrw6fhQEY2myun-116" parent="1">
          <mxGeometry width="160" relative="1" as="geometry">
            <mxPoint x="180" y="2100" as="sourcePoint" />
            <mxPoint x="280" y="2099.5" as="targetPoint" />
            <Array as="points" />
          </mxGeometry>
        </mxCell>
        <mxCell id="5VnEzYSrw6fhQEY2myun-120" value="&amp;lt;&amp;lt;include&amp;gt;&amp;gt;" style="edgeStyle=none;html=1;endArrow=open;verticalAlign=bottom;dashed=1;labelBackgroundColor=none;exitX=1;exitY=0.5;exitDx=0;exitDy=0;" edge="1" source="5VnEzYSrw6fhQEY2myun-117" target="5VnEzYSrw6fhQEY2myun-118" parent="1">
          <mxGeometry x="-0.2998" y="18" width="160" relative="1" as="geometry">
            <mxPoint x="400" y="2059.5" as="sourcePoint" />
            <mxPoint x="480" y="2059.5" as="targetPoint" />
            <Array as="points" />
            <mxPoint as="offset" />
          </mxGeometry>
        </mxCell>
        <mxCell id="5VnEzYSrw6fhQEY2myun-121" value="Ricerca Clienti" style="ellipse;whiteSpace=wrap;html=1;" vertex="1" parent="1">
          <mxGeometry x="280" y="2160" width="120" height="40" as="geometry" />
        </mxCell>
        <mxCell id="5VnEzYSrw6fhQEY2myun-122" value="Modifica Clienti" style="ellipse;whiteSpace=wrap;html=1;" vertex="1" parent="1">
          <mxGeometry x="480" y="2160" width="120" height="40" as="geometry" />
        </mxCell>
        <mxCell id="5VnEzYSrw6fhQEY2myun-123" value="" style="edgeStyle=none;html=1;endArrow=none;verticalAlign=bottom;" edge="1" parent="1">
          <mxGeometry width="160" relative="1" as="geometry">
            <mxPoint x="170" y="2180" as="sourcePoint" />
            <mxPoint x="280" y="2179.5" as="targetPoint" />
            <Array as="points" />
          </mxGeometry>
        </mxCell>
        <mxCell id="5VnEzYSrw6fhQEY2myun-124" value="&amp;lt;&amp;lt;include&amp;gt;&amp;gt;" style="edgeStyle=none;html=1;endArrow=open;verticalAlign=bottom;dashed=1;labelBackgroundColor=none;exitX=1;exitY=0.5;exitDx=0;exitDy=0;" edge="1" source="5VnEzYSrw6fhQEY2myun-121" target="5VnEzYSrw6fhQEY2myun-122" parent="1">
          <mxGeometry y="-20" width="160" relative="1" as="geometry">
            <mxPoint x="400" y="2239.5" as="sourcePoint" />
            <mxPoint x="490" y="2210" as="targetPoint" />
            <Array as="points" />
            <mxPoint as="offset" />
          </mxGeometry>
        </mxCell>
        <mxCell id="5VnEzYSrw6fhQEY2myun-125" value="" style="edgeStyle=none;html=1;endArrow=none;verticalAlign=bottom;exitX=0.713;exitY=0.87;exitDx=0;exitDy=0;exitPerimeter=0;" edge="1" source="5VnEzYSrw6fhQEY2myun-116" parent="1">
          <mxGeometry width="160" relative="1" as="geometry">
            <mxPoint x="580" y="2300" as="sourcePoint" />
            <mxPoint x="171" y="2330" as="targetPoint" />
          </mxGeometry>
        </mxCell>
        <mxCell id="5VnEzYSrw6fhQEY2myun-126" value="" style="edgeStyle=none;html=1;endArrow=none;verticalAlign=bottom;" edge="1" parent="1">
          <mxGeometry width="160" relative="1" as="geometry">
            <mxPoint x="170" y="2260" as="sourcePoint" />
            <mxPoint x="280" y="2260" as="targetPoint" />
          </mxGeometry>
        </mxCell>
        <mxCell id="5VnEzYSrw6fhQEY2myun-127" value="Aggiungi Clienti" style="ellipse;whiteSpace=wrap;html=1;" vertex="1" parent="1">
          <mxGeometry x="280" y="2240" width="120" height="40" as="geometry" />
        </mxCell>
        <mxCell id="5VnEzYSrw6fhQEY2myun-128" value="Crea PDF Lista Clienti" style="ellipse;whiteSpace=wrap;html=1;" vertex="1" parent="1">
          <mxGeometry x="280" y="2310" width="120" height="40" as="geometry" />
        </mxCell>
        <mxCell id="5VnEzYSrw6fhQEY2myun-129" value="" style="edgeStyle=none;html=1;endArrow=none;verticalAlign=bottom;" edge="1" parent="1">
          <mxGeometry width="160" relative="1" as="geometry">
            <mxPoint x="170" y="2330" as="sourcePoint" />
            <mxPoint x="280" y="2329.5" as="targetPoint" />
            <Array as="points" />
          </mxGeometry>
        </mxCell>
        <mxCell id="5VnEzYSrw6fhQEY2myun-130" value="&amp;lt;&amp;lt;include&amp;gt;&amp;gt;" style="edgeStyle=none;html=1;endArrow=open;verticalAlign=bottom;dashed=1;labelBackgroundColor=none;" edge="1" source="5VnEzYSrw6fhQEY2myun-121" target="5VnEzYSrw6fhQEY2myun-118" parent="1">
          <mxGeometry x="-0.1394" y="-23" width="160" relative="1" as="geometry">
            <mxPoint x="340" y="2140" as="sourcePoint" />
            <mxPoint x="500" y="2140" as="targetPoint" />
            <mxPoint as="offset" />
          </mxGeometry>
        </mxCell>
        <mxCell id="5VnEzYSrw6fhQEY2myun-131" value="&amp;lt;&amp;lt;include&amp;gt;&amp;gt;" style="edgeStyle=none;html=1;endArrow=open;verticalAlign=bottom;dashed=1;labelBackgroundColor=none;entryX=0;entryY=0;entryDx=0;entryDy=0;" edge="1" source="5VnEzYSrw6fhQEY2myun-117" target="5VnEzYSrw6fhQEY2myun-122" parent="1">
          <mxGeometry x="-0.0297" y="11" width="160" relative="1" as="geometry">
            <mxPoint x="334" y="2130" as="sourcePoint" />
            <mxPoint x="494" y="2130" as="targetPoint" />
            <mxPoint as="offset" />
          </mxGeometry>
        </mxCell>
        <mxCell id="5VnEzYSrw6fhQEY2myun-132" value="UC: Gestione Clienti" style="shape=umlFrame;whiteSpace=wrap;html=1;swimlaneFillColor=none;gradientColor=#ffffff;width=140;height=30;fillColor=#FFB570;strokeColor=#FFB570;" vertex="1" parent="1">
          <mxGeometry x="120" y="2400" width="320" height="160" as="geometry" />
        </mxCell>
        <mxCell id="5VnEzYSrw6fhQEY2myun-133" value="Amministratore" style="shape=umlActor;html=1;verticalLabelPosition=bottom;verticalAlign=top;align=center;" vertex="1" parent="1">
          <mxGeometry x="150" y="2450" width="30" height="60" as="geometry" />
        </mxCell>
        <mxCell id="5VnEzYSrw6fhQEY2myun-134" value="Cerca Meteo" style="ellipse;whiteSpace=wrap;html=1;" vertex="1" parent="1">
          <mxGeometry x="280" y="2460" width="120" height="40" as="geometry" />
        </mxCell>
        <mxCell id="5VnEzYSrw6fhQEY2myun-136" value="" style="edgeStyle=none;html=1;endArrow=none;verticalAlign=bottom;exitX=0.5;exitY=0.5;exitDx=0;exitDy=0;exitPerimeter=0;" edge="1" parent="1" source="5VnEzYSrw6fhQEY2myun-133">
          <mxGeometry width="160" relative="1" as="geometry">
            <mxPoint x="180" y="2480" as="sourcePoint" />
            <mxPoint x="280" y="2479.5" as="targetPoint" />
            <Array as="points" />
          </mxGeometry>
        </mxCell>
      </root>
    </mxGraphModel>
  </diagram>
</mxfile>
